<svg width="0" height="0" class="hidden">
  <symbol version="1.1" xmlns="http://www.w3.org/2000/svg" viewBox="0 0 32 32" id="fb">
    <title>fb</title>
    <path d="M13.040 29.333l-0.040-11.667h-5v-5h5v-3.333c0-4.493 2.787-6.667 6.8-6.667 1.92 0 3.573 0.133 4.053 0.2v4.707h-2.787c-2.173 0-2.6 1.040-2.6 2.56v2.533h6.2l-1.667 5h-4.533v11.667h-5.427z"></path>
  </symbol>
  <symbol version="1.1" xmlns="http://www.w3.org/2000/svg" viewBox="0 0 32 32" id="inst">
    <title>inst</title>
    <path d="M17.36 2.667c2.4 0 2.907 0.027 4.133 0.080 1.413 0.067 2.387 0.293 3.227 0.627 0.88 0.333 1.627 0.8 2.36 1.533 0.747 0.733 1.2 1.48 1.547 2.36 0.333 0.84 0.547 1.813 0.613 3.24 0.067 1.267 0.080 1.76 0.080 4.427v2.133c0 2.667-0.013 3.16-0.080 4.427-0.023 1.165-0.246 2.27-0.636 3.294l0.022-0.067c-0.347 0.88-0.8 1.627-1.533 2.36-0.747 0.747-1.493 1.2-2.373 1.547-0.84 0.333-1.813 0.547-3.227 0.613-1.267 0.067-1.773 0.080-4.44 0.080h-2.12c-2.667 0-3.16-0.013-4.44-0.080-1.165-0.023-2.27-0.246-3.294-0.636l0.067 0.022c-0.923-0.353-1.71-0.874-2.359-1.533l-0.001-0.001c-0.666-0.652-1.192-1.444-1.532-2.329l-0.015-0.045c-0.367-0.956-0.59-2.062-0.613-3.217l-0-0.010c-0.053-1.042-0.083-2.263-0.083-3.49 0-0.226 0.001-0.452 0.003-0.677l-0 0.034v-2.733c0-2.4 0.027-2.907 0.080-4.133 0.067-1.413 0.293-2.387 0.613-3.227 0.347-0.88 0.8-1.627 1.547-2.36 0.645-0.667 1.434-1.19 2.317-1.519l0.043-0.014c0.955-0.371 2.060-0.599 3.215-0.626l0.012-0c1.227-0.053 1.733-0.080 4.133-0.080zM17.387 5.067h-2.787c-2.307 0-2.8 0.027-4 0.080-1.293 0.053-2 0.267-2.467 0.453-0.627 0.24-1.067 0.533-1.533 1s-0.76 0.907-1 1.533c-0.173 0.467-0.4 1.173-0.453 2.48-0.053 1.2-0.080 1.68-0.080 4v2.773c0 2.32 0.027 2.8 0.080 4 0.053 1.293 0.267 2 0.453 2.467 0.24 0.627 0.533 1.067 1 1.533s0.907 0.76 1.533 1c0.467 0.187 1.173 0.4 2.48 0.453 1.293 0.067 1.76 0.080 4.64 0.080h1.48c2.893 0 3.347-0.013 4.653-0.080 1.293-0.053 2-0.267 2.467-0.453 0.627-0.24 1.067-0.533 1.533-1s0.76-0.907 1-1.533c0.187-0.467 0.4-1.173 0.453-2.467 0.067-1.307 0.080-1.76 0.080-4.653v-1.467c0-2.893-0.013-3.36-0.080-4.667-0.053-1.293-0.267-2-0.453-2.467-0.226-0.601-0.567-1.114-0.999-1.532l-0.001-0.001c-0.42-0.433-0.932-0.774-1.505-0.991l-0.028-0.009c-0.732-0.276-1.578-0.441-2.462-0.453l-0.005-0c-1.028-0.052-2.231-0.082-3.442-0.082-0.196 0-0.392 0.001-0.588 0.002l0.030-0zM16 9.147c3.781 0 6.847 3.065 6.847 6.847s-3.065 6.847-6.847 6.847v0c-3.781 0-6.847-3.065-6.847-6.847s3.065-6.847 6.847-6.847v0zM16 11.547c-2.456 0-4.447 1.991-4.447 4.447s1.991 4.447 4.447 4.447v0c2.456 0 4.447-1.991 4.447-4.447s-1.991-4.447-4.447-4.447v0zM23.107 7.28c0.884 0 1.6 0.716 1.6 1.6s-0.716 1.6-1.6 1.6v0c-0.884 0-1.6-0.716-1.6-1.6s0.716-1.6 1.6-1.6v0z"></path>
  </symbol>
  <symbol version="1.1" xmlns="http://www.w3.org/2000/svg" viewBox="0 0 32 32" id="pinterest">
    <title>pinterest</title>
    <path d="M16 2.667c-7.343 0.027-13.286 5.986-13.286 13.333 0 5.599 3.452 10.393 8.343 12.368l0.089 0.032c-0.133-1.053-0.227-2.667 0.040-3.827l1.56-6.627s-0.4-0.8-0.4-1.973c0-1.853 1.080-3.227 2.427-3.227 1.133 0 1.693 0.853 1.693 1.867 0 1.147-0.733 2.853-1.12 4.44-0.32 1.333 0.667 2.413 1.987 2.413 2.373 0 4.187-2.493 4.187-6.093 0-3.2-2.293-5.413-5.573-5.413-0.076-0.004-0.164-0.006-0.253-0.006-3.189 0-5.773 2.585-5.773 5.773 0 0.002 0 0.004 0 0.006v-0c0 1.147 0.44 2.373 0.987 3.040 0.107 0.133 0.12 0.253 0.080 0.387l-0.373 1.507c-0.053 0.24-0.2 0.307-0.44 0.187-1.68-0.787-2.72-3.2-2.72-5.173 0-4.2 3.067-8.053 8.827-8.053 4.613 0 8.227 3.28 8.227 7.693 0 4.6-2.907 8.293-6.933 8.293-1.333 0-2.613-0.707-3.040-1.533l-0.84 3.16c-0.431 1.337-0.992 2.498-1.688 3.563l0.034-0.056c1.17 0.372 2.516 0.587 3.911 0.587 7.364 0 13.333-5.97 13.333-13.333 0-7.347-5.942-13.306-13.282-13.333h-0.003z"></path>
  </symbol>
  <symbol version="1.1" xmlns="http://www.w3.org/2000/svg" viewBox="0 0 32 32" id="tw">
    <title>tw</title>
    <path d="M29.333 7.84c-1 0.493-2 0.667-3.173 0.827 1.173-0.667 2-1.667 2.333-3-1.005 0.608-2.176 1.071-3.423 1.322l-0.070 0.012c-1.031-1.014-2.44-1.646-3.996-1.667l-0.004-0c-2.84 0-5.333 2.507-5.333 5.507 0 0.493 0 0.827 0.173 1.16-4.578-0.178-8.619-2.337-11.311-5.639l-0.022-0.028c-0.425 0.726-0.676 1.598-0.676 2.529 0 0.109 0.003 0.218 0.010 0.326l-0.001-0.015c0.034 1.878 1.009 3.521 2.473 4.481l0.021 0.013c-0.84 0-1.667-0.333-2.507-0.667 0 2.667 1.84 4.84 4.333 5.333-0.493 0.173-1 0.173-1.493 0.173-0.333 0-0.667 0-1-0.173 0.667 2.173 2.667 3.84 5.173 3.84-1.8 1.455-4.116 2.335-6.637 2.335-0.071 0-0.142-0.001-0.213-0.002l0.011 0h-1.333c2.365 1.509 5.236 2.429 8.316 2.493l0.017 0c10 0 15.507-8.333 15.507-15.507v-0.667c1.147-0.79 2.093-1.787 2.803-2.944l0.024-0.042z"></path>
  </symbol>
</svg>